/* XPM */
static char *_36f484f036b440facca6738ce33fb76[] = {
/* columns rows colors chars-per-pixel */
"16 16 8 1 ",
"  c None",
". c #141B1B",
"X c #2E3939",
"o c #D14B34",
"O c #965340",
"+ c #EF914F",
"@ c #548789",
"# c #E3F1F5",
/* pixels */
"                ",
" ..... ...      ",
" .oooo.OOO...   ",
" .ooooooooooO.  ",
"  .ooooooooooO. ",
" .OOOOooooooOO. ",
" .OoooOOoooOOO. ",
" .++++OOOOOOOO. ",
" .+..#+OooOOOO. ",
" .+++++OooOOOO. ",
" ...++++oOOOOO. ",
" .+++++oooooo.  ",
"  ...o######.   ",
"    .##.++.X.   ",
"    .@@.++.@.   ",
"     .@...@.    "
};
