/* XPM */
static char * pared_xpm[] = {
"64 64 5 1",
" 	c #2F2E2F",
".	c #85578E",
"+	c #BE9BB0",
"@	c #564064",
"#	c #3E2F5A",
"                                                                ",
"                                                                ",
"                                                                ",
"                                                                ",
"    ..++++++++++++++++++++..  ..++++++++++++++++++++++++++++++..",
"    ..++++++++++++++++++++..  ..++++++++++++++++++++++++++++++..",
"    ++....................++  ++..........@@......@@..........++",
"    ++....................++  ++..........@@......@@..........++",
"    ....@@@@@@@@..@@@@@@....  ....@@@@..@@@@@@..@@@@@@@@..@@....",
"    ....@@@@@@@@..@@@@@@....  ....@@@@..@@@@@@..@@@@@@@@..@@....",
"    ..@@@@@@@@@@@@@@@@####..  ..####@@@@@@@@@@@@@@@@@@@@@@@@@@..",
"    ..@@@@@@@@@@@@@@@@####..  ..####@@@@@@@@@@@@@@@@@@@@@@@@@@..",
"    @@..@@@@################  ############@@@@##########@@@@@@@@",
"    @@..@@@@################  ############@@@@##########@@@@@@@@",
"    ##@@@@################      ##########################@@@@##",
"    ##@@@@################      ##########################@@@@##",
"                                                                ",
"                                                                ",
"    @@........................................................@@",
"    @@........................................................@@",
"    ............................@@@@............................",
"    ............................@@@@............................",
"    ....@@@@@@..@@@@..@@@@@@..@@@@@@@@..@@....@@....@@..@@@@....",
"    ....@@@@@@..@@@@..@@@@@@..@@@@@@@@..@@....@@....@@..@@@@....",
"    ..@@..@@@@@@@@@@@@@@##@@@@@@######@@@@@@@@@@@@@@@@@@@@..@@..",
"    ..@@..@@@@@@@@@@@@@@##@@@@@@######@@@@@@@@@@@@@@@@@@@@..@@..",
"    ..@@@@@@@@@@##@@@@######@@@@@@@@@@@@####@@@@##@@##@@@@@@@@@@",
"    ..@@@@@@@@@@##@@@@######@@@@@@@@@@@@####@@@@##@@##@@@@@@@@@@",
"    @@..@@@@@@####################@@@@##################@@@@@@@@",
"    @@..@@@@@@####################@@@@##################@@@@@@@@",
"    ##@@@@################################################@@@@##",
"    ##@@@@################################################@@@@##",
"                                                                ",
"                                                                ",
"    @@................      ..................................@@",
"    @@................      ..................................@@",
"    ............@@......  ............@@........................",
"    ............@@......  ............@@........................",
"    ......@@..@@@@@@....  ....@@@@..@@@@@@@@..@@@@......@@......",
"    ......@@..@@@@@@....  ....@@@@..@@@@@@@@..@@@@......@@......",
"    ....@@@@##@@@@@@@@..  ..@@@@@@@@@@##@@@@##@@@@@@..@@..@@....",
"    ....@@@@##@@@@@@@@..  ..@@@@@@@@@@##@@@@##@@@@@@..@@..@@....",
"    ..@@..@@@@##@@@@@@##  ##@@@@@@@@####@@@@@@##@@@@@@@@@@@@@@..",
"    ..@@..@@@@##@@@@@@##  ##@@@@@@@@####@@@@@@##@@@@@@@@@@@@@@..",
"    ..@@@@@@@@####@@####  ####@@######@@@@##@@@@@@####@@@@@@@@@@",
"    ..@@@@@@@@####@@####  ####@@######@@@@##@@@@@@####@@@@@@@@@@",
"    @@..@@@@############  ####################@@########@@@@@@@@",
"    @@..@@@@############  ####################@@########@@@@@@@@",
"    ##@@##############      ##############################@@@@##",
"    ##@@##############      ##############################@@@@##",
"                                                                ",
"                                                                ",
"    @@........................................................@@",
"    @@........................................................@@",
"    ......@@................@@......@@..........................",
"    ......@@................@@......@@..........................",
"    ........@@......@@@@..@@@@@@..@@@@@@..@@......@@@@....@@....",
"    ........@@......@@@@..@@@@@@..@@@@@@..@@......@@@@....@@....",
"    ..@@@@@@..##..##@@@@@@@@@@@@##@@@@@@@@@@@@..@@@@@@@@@@......",
"    ..@@@@@@..##..##@@@@@@@@@@@@##@@@@@@@@@@@@..@@@@@@@@@@......",
"    @@@@@@@@@@########@@####@@@@@@@@@@####@@##@@@@##@@@@@@@@@@@@",
"    @@@@@@@@@@########@@####@@@@@@@@@@####@@##@@@@##@@@@@@@@@@@@",
"    ##@@@@@@######################@@##################@@@@@@@@##",
"    ##@@@@@@######################@@##################@@@@@@@@##"};
