/* XPM */
static char * tonyizquierda_xpm[] = {
"64 64 358 2",
"  	c #302C2E",
". 	c #393637",
"+ 	c #696768",
"@ 	c #828182",
"# 	c #7A7979",
"$ 	c #4F4D4E",
"% 	c #333031",
"& 	c #4C494A",
"* 	c #9E9D9E",
"= 	c #CAC9CA",
"- 	c #BEBDBD",
"; 	c #787778",
"> 	c #363334",
", 	c #535152",
"' 	c #B2B1B2",
") 	c #E7E7E7",
"! 	c #E5E5E5",
"~ 	c #8F8E8E",
"{ 	c #8B8A8B",
"] 	c #7E7D7D",
"^ 	c #585657",
"/ 	c #B0B0B0",
"( 	c #ECECEC",
"_ 	c #F4F4F4",
": 	c #EAEAEA",
"< 	c #E3E3E3",
"[ 	c #E1E1E1",
"} 	c #CBCBCB",
"| 	c #403D3E",
"1 	c #363335",
"2 	c #353133",
"3 	c #312D2F",
"4 	c #969595",
"5 	c #D6D6D6",
"6 	c #F0F0F0",
"7 	c #F8F8F8",
"8 	c #FDFDFD",
"9 	c #FCFCFC",
"0 	c #BEBEBE",
"a 	c #8A898A",
"b 	c #717070",
"c 	c #636162",
"d 	c #4A4748",
"e 	c #383436",
"f 	c #3C393A",
"g 	c #575556",
"h 	c #878687",
"i 	c #C0C0C0",
"j 	c #EFEFEF",
"k 	c #FFFFFF",
"l 	c #FAFAFA",
"m 	c #EDEDED",
"n 	c #DDDDDD",
"o 	c #C5C5C5",
"p 	c #A3A2A3",
"q 	c #6A696A",
"r 	c #4C4A4B",
"s 	c #383536",
"t 	c #322E30",
"u 	c #474546",
"v 	c #7C7B7B",
"w 	c #8D8C8C",
"x 	c #454344",
"y 	c #A1A0A1",
"z 	c #E6E6E6",
"A 	c #D3D3D3",
"B 	c #A5A4A5",
"C 	c #878686",
"D 	c #7C7B7C",
"E 	c #747374",
"F 	c #737272",
"G 	c #747373",
"H 	c #757475",
"I 	c #696868",
"J 	c #4D4A4B",
"K 	c #979696",
"L 	c #AEAEAE",
"M 	c #949394",
"N 	c #4E4B4C",
"O 	c #9C9C9C",
"P 	c #FBFBFB",
"Q 	c #B5B5B5",
"R 	c #9B9B9B",
"S 	c #939293",
"T 	c #8D8C8D",
"U 	c #8C8B8B",
"V 	c #8D8D8D",
"W 	c #7E7E7E",
"X 	c #5D5B5C",
"Y 	c #ADACAD",
"Z 	c #C9C9C9",
"` 	c #AEADAD",
" .	c #3E3B3D",
"..	c #9F9E9E",
"+.	c #F6F6F6",
"@.	c #E9E9E9",
"#.	c #AFAFAF",
"$.	c #A7A7A7",
"%.	c #A3A3A3",
"&.	c #A2A2A2",
"*.	c #A4A3A3",
"=.	c #929292",
"-.	c #686768",
";.	c #3E3B3C",
">.	c #CECECE",
",.	c #CFCFCF",
"'.	c #C6C5C5",
").	c #9B9A9A",
"!.	c #6A6969",
"~.	c #DADADA",
"{.	c #D4D4D4",
"].	c #9A999A",
"^.	c #727172",
"/.	c #656364",
"(.	c #373436",
"_.	c #332F31",
":.	c #434042",
"<.	c #737172",
"[.	c #BFBFBF",
"}.	c #D2D2D2",
"|.	c #B4B3B4",
"1.	c #7F7E7E",
"2.	c #A0A0A0",
"3.	c #FEFEFE",
"4.	c #F9F9F9",
"5.	c #F5F5F5",
"6.	c #F3F3F3",
"7.	c #C6C6C6",
"8.	c #A9A9A9",
"9.	c #A1A1A1",
"0.	c #787777",
"a.	c #504E4F",
"b.	c #403D3F",
"c.	c #5F5D5E",
"d.	c #A4A4A4",
"e.	c #C8C8C8",
"f.	c #AAAAAA",
"g.	c #BDBDBD",
"h.	c #F7F7F7",
"i.	c #E2E2E2",
"j.	c #CCCCCC",
"k.	c #A6A5A5",
"l.	c #807F7F",
"m.	c #706F70",
"n.	c #565455",
"o.	c #363234",
"p.	c #5A5859",
"q.	c #B7B6B6",
"r.	c #D9D9D9",
"s.	c #F2F2F2",
"t.	c #CECDCE",
"u.	c #B3B3B3",
"v.	c #494748",
"w.	c #929192",
"x.	c #D7D7D7",
"y.	c #7B7B7B",
"z.	c #555454",
"A.	c #3A3738",
"B.	c #605E5F",
"C.	c #959494",
"D.	c #D7D6D6",
"E.	c #F1F1F1",
"F.	c #838283",
"G.	c #525051",
"H.	c #413E3F",
"I.	c #919191",
"J.	c #A2A1A2",
"K.	c #D5D5D5",
"L.	c #848384",
"M.	c #5D5C5C",
"N.	c #423F41",
"O.	c #DFDFDF",
"P.	c #DBDBDB",
"Q.	c #5B5A5B",
"R.	c #646364",
"S.	c #C9C8C8",
"T.	c #676667",
"U.	c #666465",
"V.	c #CAC9C9",
"W.	c #676566",
"X.	c #5E5D5E",
"Y.	c #BCBCBC",
"Z.	c #EBEBEB",
"`.	c #EEEEEE",
" +	c #343032",
".+	c #C4C3C4",
"++	c #D1D1D1",
"@+	c #333032",
"#+	c #C2C2C2",
"$+	c #DEDEDE",
"%+	c #BBBBBB",
"&+	c #737373",
"*+	c #6B6B6B",
"=+	c #CDCDCD",
"-+	c #666565",
";+	c #BAB9BA",
">+	c #E0E0E0",
",+	c #989898",
"'+	c #626262",
")+	c #636363",
"!+	c #9E9E9E",
"~+	c #C1C1C1",
"{+	c #9F9E9F",
"]+	c #626061",
"^+	c #E2E1E1",
"/+	c #E4E4E4",
"(+	c #606060",
"_+	c #676767",
":+	c #B7B7B7",
"<+	c #C7C7C7",
"[+	c #9B9A9B",
"}+	c #636262",
"|+	c #9F9F9F",
"1+	c #B8B8B8",
"2+	c #908F90",
"3+	c #5C5B5B",
"4+	c #6C6B6C",
"5+	c #C7C6C6",
"6+	c #757575",
"7+	c #E8E8E8",
"8+	c #D0D0D0",
"9+	c #C3C3C3",
"0+	c #B1B1B1",
"a+	c #818080",
"b+	c #C8C7C7",
"c+	c #C2C1C1",
"d+	c #A6A6A6",
"e+	c #807F80",
"f+	c #514F50",
"g+	c #555354",
"h+	c #898989",
"i+	c #A5A5A5",
"j+	c #302D2E",
"k+	c #312E2F",
"l+	c #373435",
"m+	c #ADADAD",
"n+	c #312E30",
"o+	c #3B3839",
"p+	c #464445",
"q+	c #656565",
"r+	c #858484",
"s+	c #BABABA",
"t+	c #CACACA",
"u+	c #969696",
"v+	c #797878",
"w+	c #403E3F",
"x+	c #4A494A",
"y+	c #515050",
"z+	c #5A595A",
"A+	c #888888",
"B+	c #979797",
"C+	c #C4C4C4",
"D+	c #828282",
"E+	c #5D5C5D",
"F+	c #302D2F",
"G+	c #393638",
"H+	c #575656",
"I+	c #666566",
"J+	c #696969",
"K+	c #6D6C6D",
"L+	c #7D7D7D",
"M+	c #8E8E8E",
"N+	c #B4B4B4",
"O+	c #DCDCDC",
"P+	c #B9B9B9",
"Q+	c #A8A8A8",
"R+	c #868686",
"S+	c #787878",
"T+	c #717171",
"U+	c #5E5E5E",
"V+	c #3B393A",
"W+	c #3C393B",
"X+	c #616060",
"Y+	c #737273",
"Z+	c #7A7A7A",
"`+	c #999999",
" @	c #ABABAB",
".@	c #585758",
"+@	c #3B383A",
"@@	c #777777",
"#@	c #858585",
"$@	c #9D9D9D",
"%@	c #939393",
"&@	c #525152",
"*@	c #3A3839",
"=@	c #5E5D5D",
"-@	c #D8D8D8",
";@	c #8B8B8B",
">@	c #797979",
",@	c #8A8A8A",
"'@	c #3F3C3E",
")@	c #605F5F",
"!@	c #5C5B5C",
"~@	c #3D3A3B",
"{@	c #525151",
"]@	c #8C8C8C",
"^@	c #3F3D3E",
"/@	c #3C3A3B",
"(@	c #B6B6B6",
"_@	c #959595",
":@	c #9A9A9A",
"<@	c #565555",
"[@	c #7C7C7C",
"}@	c #353233",
"|@	c #949494",
"1@	c #808080",
"2@	c #605F60",
"3@	c #ACACAC",
"4@	c #757474",
"5@	c #939292",
"6@	c #535252",
"7@	c #777677",
"8@	c #C0BFBF",
"9@	c #595858",
"0@	c #909090",
"a@	c #A8A7A8",
"b@	c #ABAAAA",
"c@	c #878787",
"d@	c #868585",
"e@	c #686868",
"f@	c #383537",
"g@	c #CDCCCC",
"h@	c #898888",
"i@	c #5C5A5B",
"j@	c #4E4C4D",
"k@	c #353234",
"l@	c #6A6A6A",
"m@	c #858485",
"n@	c #3A3739",
"o@	c #484647",
"p@	c #434142",
"q@	c #4B494A",
"r@	c #B2B2B2",
"s@	c #7E7D7E",
"t@	c #494849",
"u@	c #424041",
"v@	c #474647",
"w@	c #ADACAC",
"x@	c #B0AFB0",
"y@	c #8F8E8F",
"z@	c #F5F4F4",
"A@	c #DBDADA",
"B@	c #717071",
"C@	c #908F8F",
"D@	c #868586",
"E@	c #BCBBBC",
"F@	c #777676",
"G@	c #343133",
"H@	c #767576",
"I@	c #B9B8B8",
"J@	c #A09F9F",
"K@	c #898889",
"L@	c #757374",
"M@	c #A9A8A8",
"N@	c #6B6A6A",
"O@	c #B8B7B8",
"P@	c #8E8D8D",
"Q@	c #7D7C7C",
"                                                                                                                                ",
"                                                    . + @ # $                                                                   ",
"                                                  % & * = - ; > > %                                                             ",
"                                                  % , ' ) ! ' ~ { ] ^ %                                                         ",
"                                                  % , / ( _ : < [ } { | 1 2 3                                                   ",
"                                                  % & 4 5 6 7 8 9 ( 0 a b c d e %                                               ",
"                                            . f f f f g h i j k k l m n o p q r | s 1 1 1 1 1 s 1 2 t                           ",
"                                          u v w w ; x > x y z k k k 8 7 : A B C D E F G G G G H G I J t                         ",
"                                        % , K L L M N % f O z k k k k P j n Q R S T U T T T T V T W ^ t                         ",
"                                        % X Y Z Z ` X >  ...z k k k k 9 +.@.o #.$.%.&.&.&.&.&.*.&.=.-.;.s s 2                   ",
"                                        % X #.>.,.'.).!.^ * ! k k k k k k l ) ~.5 {.A A A A A {.{.o ].^.I /.$ (._.              ",
"                                          :.<.~ ..[.}.|.1.2.! k k k k k k 3.4.5.6.6.6.6.6.6.6.6.6.! 7.L 8.9.0.a.b.2             ",
"                                            . & c.d.e.i f.g.( k k k k k k k k k k k 3.3.3.3.3.3.3.h.i.{.}.j.k.l.m.n.o.          ",
"                                              >  .p.~ q.r.m 4.k k k k k k k k k k k k k k k k k k 8 +.s.s.m t.u.d.h v.t         ",
"                                              >  .X w.= s.k k k k k k k k k k k k k k k k k k k k k k k k P ) x.>.Q y.z.A.      ",
"                                            > d B.C.D.6 9 k k k k k k k k k k k k k k k k k k k k k k k k 3.7 E.( n / F.G.      ",
"                                          H.<.I.J.= +.k k k k k k k k k k k k k k k k k k k k k k k k k k k k 8 l E.K.u.L.M.N.  ",
"                                        % p./ K.O.j 8 k k k k k k k k k k k k k k k k k k k k k k k k k k k k k 8 l E.P.q.V Q.  ",
"                                        % R.S.6 7 3.k k k k k k k k k k k k k k k k k k k k k k k k k k k k k k k k 9 ( } 2.T.t ",
"                                        % U.V.6.7 8 k k 3.3.3.k k k k k k k k k k k k k k k k k k k k k k k k k k k 9 ( j.&.W.  ",
"                                        _.X.Y.i.Z.+.P _ @.) `._ 9 k k k k k k k k k k k k k k k k k k k k k k k k k 9 ( } y W.  ",
"                                         +, 9..+++z E.P.8.2.0 P.s.k k k k k k k k k k k 3.3.k k k k k k k k k k k k 9 ( } y W.  ",
"                                        @+, 9.#+>.$+< %+&+*+9.=+`.3.k k k k k k k k 8 5.m 6 P k k k k k k k k k k k 9 ( } 9.-+  ",
"                                        _.c.;+$+>+$+,.,+'+)+!+=+`.3.k k k k k k k k l $+~+Z m 9 k k k k k k k k k k P : Z {+/.  ",
"                                        _.]+0 ^+/+[ =+V (+_+2.=+`.3.k k k k k k k k l ~.:+0 ) l 3.k k k k k k k k k l ) <+[+}+  ",
"                                        _.X / A ~.~.>.R '+)+|+j.`.3.k k k k k k k k P >+i ~+$+j l k k k k k k k 3.9 s.$+1+2+3+  ",
"                                           .4+U * 5+~.g.6+*+9.=+`.3.k k k k k k k k 8 7 7+8+:+9+: k k k k k 3.9 4.s.x.0+a+^ |   ",
"                                            . v.X S b+c+B &.[.P.6.k k k k k k k k k k k 9 P.d+f.< k k k k k 9 +.E.>+/ e+f+2 t   ",
"                                              >  .g+h+1+r.) `._ P 3.3.k k k k k k k k k 9 P.i+f.i.8 k k k 8 E.) O.9+v G.A.      ",
"                                            j+k+t l+^ ..{.z Z.6 5.7 7 4.8 k k k k k k P E.{.m+0+P.E.h.7 7 _ $+=+9+|+G.@+        ",
"                                            n+o.o+p+q+r+&.:+7.K.i.7+@.( h.3.k k k k 8 E.P.<+s+%+t+r.< @.@.< i d+u+v+:.3         ",
"                                          _.w+x+y+z+&+A+B+|+i+0+~+j.}.P.( +.7 7 4.9 9 ( >.~+~+#+#+C+<+} } C+|+D+6+E+A.F+        ",
"                                        3 G+H+I+J+K+L+%.Y.1+R M+u+d.N+<+O+) @.Z.( _ 7 Z.j.~+~+#+~+P+Q+!+O ,+R+S+T+U+V+3         ",
"                                        3 W+X+Y+Z+D+O [.}.=+m+`+,+|+ @:+9+Z } =+,.r.$+{.s+#.#./ / L f.$.$.Q+$.d.2.{ .@ . +      ",
"                                        3 +@(+@@#@$@7.x.n ~.8+} t+7.%+/ $.|+O O $@&.i+&.,+%@=.=.%@Q+>.< z z ! [ P.i v &@V+      ",
"                                        F+*@=@0.A+f.r.! ) 7+@.@.@./+-@e.:+i+;@D+y.S+>@;@|+$.Q+d+d+0 ) 9 3.3.8 l s.K.,@z+'@j+    ",
"                                      3 k+o+)@>@h+f.~.( 5.7 4.4.4.+.6 : z P.m+h+Z+&+@@ @r.z /+< z ( 7 k k k 3.l 5.5 ;@!@'@j+    ",
"                                       +~@{@L+%@$@f.Z < 7 3.k k k P s.Z.@.O.0+]@R+A+9.K.E.5.m m h.3.k k k 3.6.z n 9+#@!@^@F+    ",
"                                      /@z.>@L [.i (@/ } 6.3.3.8 8 E.=+ @Q+i+_@;@M+ @[ +.l z C+7.j 3.3.3.3.h.A (@ @:@Z+=@H.3     ",
"                                      *@<@#@7.O.[ ++#+A s.+.@.i.[ >.|+;@R  @/ Q Y.-@4.3.8 ) o i ++[ i.i.i.$+<+:+m+|+[@X.H.3     ",
"                                      }@{@#@} ! 7+O.K.[ 5.6 -@} t+%+|@h+Q+~+t+=+8+< P k 3.`.{.<+e.t+t+t+} j.t+o i #.1@E+w+F+    ",
"                                  % l+p+2@;@,.@.m ( @.j h.@.9+L 3@%.;@I.g.n < ! z 6 8 k k 7 ) }.[.#.L m+m+N+=+K.{.i #@3+| F+    ",
"                                  & 4@5@2.0+,.>+! Z.5.h.+.>+P+9.2.!+R / O+6.h.h.h.l k k k k 3.j <+#.3@d+=.|@g.K.{.[.W 6@f       ",
"                          % . .  .7@8@< 7+i.o (@:+e.! Z.@.$+++} } j.=+}.$+@.Z.m `.6.9 8 3.3.3.7 m 7+) r.f.,@I.2.2.V 9@~@@+      ",
"                        % X F.0@w.a@e.O+n {.b@c@d@$@#+} } } Z e.Z e.e.Z } t+t+j.>.5 < z z z z ! < < < 5  @W *+e@q+n.f@3         ",
"                        :.w g@/+/+{.' C.~ h@m.Q.i@F |@:@:@:@O O O R R :@,+,+,+,+`+!+d.i+i+d.i+$.8. @f.d.I.6+9@j@u ~@t           ",
"                    > p.a u.++O.O.Z U H.% _.% k@*@$ I+l@l@J+l@Z+w.$@$@$@$@$@$@$@$@$@!+!+|+2.|+|@v l@J+l@l@I+$ o+k@t             ",
"              % % % d O j.} f.C.w.m@X %       j+t n@x o@u p@q@1.u.t+} } } } } } } } Z Z Z t+Z r@s@t@u@u v.v@~@_.3               ",
"          H.<.{ ~ I.].;+++- ; %   %                 3 3     _.d@t+7+@.@.@.@.@.@.@.@.@.@.@.[ t.w@F k@  3 3 3                     ",
"    % % > Q.x@}.P.$+O+S.J.; N                               > y@x.h.7 7 7 7 7 7 7 7 7 7 z@A@d.B@j@                              ",
"  N v C@S $@C+~.[ < O.:+!.%                             > ^ D@s+: 3.3.3.3.3.3.3.3.3.3.7 ! E@F@G@                                ",
"> H@E@~.$+-@I@J@,+S w 7@x                               H.K@<+z +.3.3.3.3.3.3.3.3.3.l >+a@L@&                                   ",
"1.M@j.< z P...c N H.f . %                               :.C@>.! ! < /+/+/+< < < /+/+O.q.N@. %                                   ",
"~+>.O@M ~ h R. .>                                       > X @ ~ P@w P@w w w w w w P@{ <.x                                       ",
"<+j.S u  . ..                                             % f H.H.H.H.H.H.H.H.H.H.H.H.f %                                       ",
"v Q@p.%                                                                                                                         ",
"g ^ x %                                                                                                                         ",
":.:..                                                                                                                           ",
"                                                                                                                                ",
"                                                                                                                                ",
"                                                                                                                                ",
"                                                                                                                                ",
"                                                                                                                                ",
"                                                                                                                                "};
