/* XPM */
static char * tonyespaldas_xpm[] = {
"64 64 262 2",
"  	c #302C2E",
". 	c #333031",
"+ 	c #3E3B3D",
"@ 	c #646364",
"# 	c #B5B5B5",
"$ 	c #7F7E7E",
"% 	c #EAEAEA",
"& 	c #E9E9E9",
"* 	c #7E7D7D",
"= 	c #807F80",
"- 	c #5B5A5B",
"; 	c #9D9D9D",
"> 	c #B8B7B8",
", 	c #C9C8C8",
"' 	c #676666",
") 	c #7B7A7A",
"! 	c #E3E3E3",
"~ 	c #E6E6E6",
"{ 	c #878687",
"] 	c #454344",
"^ 	c #363334",
"/ 	c #EBEBEB",
"( 	c #818081",
"_ 	c #4E4B4C",
": 	c #A5A4A5",
"< 	c #D6D6D6",
"[ 	c #CDCCCC",
"} 	c #706F70",
"| 	c #434042",
"1 	c #696869",
"2 	c #747373",
"3 	c #D5D5D5",
"4 	c #DCDCDC",
"5 	c #9B9A9A",
"6 	c #6E6C6D",
"7 	c #5D5B5C",
"8 	c #ABAAAB",
"9 	c #ABABAB",
"0 	c #605F5F",
"a 	c #424041",
"b 	c #686768",
"c 	c #717071",
"d 	c #6D6C6C",
"e 	c #828181",
"f 	c #B1B0B0",
"g 	c #373436",
"h 	c #4A4849",
"i 	c #676667",
"j 	c #B9B9B9",
"k 	c #D2D2D2",
"l 	c #CECECE",
"m 	c #BBBBBB",
"n 	c #8C8B8B",
"o 	c #666565",
"p 	c #535152",
"q 	c #929292",
"r 	c #939293",
"s 	c #555354",
"t 	c #5A5859",
"u 	c #909090",
"v 	c #E1E1E1",
"w 	c #DDDDDD",
"x 	c #777677",
"y 	c #343032",
"z 	c #413F40",
"A 	c #504E4F",
"B 	c #565455",
"C 	c #8B8A8A",
"D 	c #F3F3F3",
"E 	c #F6F6F6",
"F 	c #DEDEDE",
"G 	c #797878",
"H 	c #373435",
"I 	c #7B7A7B",
"J 	c #CCCBCC",
"K 	c #C9C9C9",
"L 	c #6F6E6E",
"M 	c #6B6A6A",
"N 	c #C3C2C2",
"O 	c #CFCFCF",
"P 	c #AFAFAF",
"Q 	c #908F8F",
"R 	c #474446",
"S 	c #858585",
"T 	c #ADADAD",
"U 	c #BCBBBC",
"V 	c #CBCBCB",
"W 	c #E4E4E4",
"X 	c #F2F2F2",
"Y 	c #FBFBFB",
"Z 	c #E7E6E7",
"` 	c #7D7C7D",
" .	c #3A3738",
"..	c #757474",
"+.	c #BCBBBB",
"@.	c #F0F0F0",
"#.	c #7C7B7C",
"$.	c #332F31",
"%.	c #393638",
"&.	c #3C393A",
"*.	c #393637",
"=.	c #3C393B",
"-.	c #6B6A6B",
";.	c #B7B6B7",
">.	c #F1F1F1",
",.	c #EFEFEF",
"'.	c #FAFAFA",
").	c #E8E8E8",
"!.	c #898889",
"~.	c #6A6869",
"{.	c #F9F9F9",
"].	c #4E4D4D",
"^.	c #949393",
"/.	c #8D8C8C",
"(.	c #8A8A8A",
"_.	c #898888",
":.	c #969596",
"<.	c #ADACAD",
"[.	c #C0C0C0",
"}.	c #ECECEC",
"|.	c #FCFCFC",
"1.	c #D0D0D0",
"2.	c #D2D1D1",
"3.	c #EDEDED",
"4.	c #EEEEEE",
"5.	c #C6C6C6",
"6.	c #312D2F",
"7.	c #353133",
"8.	c #D7D7D7",
"9.	c #FFFFFF",
"0.	c #F7F7F7",
"a.	c #7D7C7C",
"b.	c #696868",
"c.	c #9F9E9E",
"d.	c #AEAEAE",
"e.	c #AAAAAA",
"f.	c #F4F4F4",
"g.	c #F5F5F5",
"h.	c #FEFEFE",
"i.	c #E5E5E5",
"j.	c #B3B3B3",
"k.	c #DFDFDF",
"l.	c #757475",
"m.	c #8A898A",
"n.	c #B4B4B4",
"o.	c #878686",
"p.	c #727172",
"q.	c #CBCACA",
"r.	c #FDFDFD",
"s.	c #6C6B6B",
"t.	c #767575",
"u.	c #F8F8F8",
"v.	c #D3D3D3",
"w.	c #727171",
"x.	c #6E6D6E",
"y.	c #D1D1D1",
"z.	c #6D6B6C",
"A.	c #464445",
"B.	c #6E6D6D",
"C.	c #9A9A9A",
"D.	c #D8D8D8",
"E.	c #9D9C9D",
"F.	c #444143",
"G.	c #BDBDBD",
"H.	c #B9B8B8",
"I.	c #666566",
"J.	c #787777",
"K.	c #D9D9D9",
"L.	c #737172",
"M.	c #717070",
"N.	c #CCCCCC",
"O.	c #545253",
"P.	c #C1C0C0",
"Q.	c #C4C4C4",
"R.	c #929191",
"S.	c #6F6E6F",
"T.	c #585758",
"U.	c #A8A8A8",
"V.	c #7A797A",
"W.	c #3D3A3C",
"X.	c #7C7C7C",
"Y.	c #BABABA",
"Z.	c #C2C2C2",
"`.	c #DBDBDB",
" +	c #BEBDBD",
".+	c #525051",
"++	c #8C8C8C",
"@+	c #A0A0A0",
"#+	c #BEBEBE",
"$+	c #A1A1A1",
"%+	c #A9A9A9",
"&+	c #969696",
"*+	c #575556",
"=+	c #494647",
"-+	c #959595",
";+	c #999999",
">+	c #777777",
",+	c #5F5E5F",
"'+	c #403E3F",
")+	c #3F3D3E",
"!+	c #5D5C5D",
"~+	c #8F8F8F",
"{+	c #A5A5A5",
"]+	c #9F9F9F",
"^+	c #322F31",
"/+	c #3B3839",
"(+	c #514F50",
"_+	c #919191",
":+	c #9B9B9B",
"<+	c #6C6C6C",
"[+	c #4B494A",
"}+	c #818181",
"|+	c #989898",
"1+	c #949494",
"2+	c #7E7D7E",
"3+	c #484647",
"4+	c #9E9E9E",
"5+	c #ACACAC",
"6+	c #B8B8B8",
"7+	c #A2A2A2",
"8+	c #8E8E8E",
"9+	c #979797",
"0+	c #D4D4D4",
"a+	c #BCBCBC",
"b+	c #7A7A7A",
"c+	c #535252",
"d+	c #A7A7A7",
"e+	c #B6B6B6",
"f+	c #A4A4A4",
"g+	c #C1C1C1",
"h+	c #7E7E7E",
"i+	c #444243",
"j+	c #A3A3A3",
"k+	c #B7B7B7",
"l+	c #B1B1B1",
"m+	c #BFBFBF",
"n+	c #3D3A3B",
"o+	c #666465",
"p+	c #CACACA",
"q+	c #C3C3C3",
"r+	c #C7C7C7",
"s+	c #848384",
"t+	c #565556",
"u+	c #C8C7C8",
"v+	c #E0E0E0",
"w+	c #8B8A8B",
"x+	c #656464",
"y+	c #434142",
"z+	c #B2B2B2",
"A+	c #B0AFB0",
"B+	c #DADADA",
"C+	c #7C7B7B",
"D+	c #3A3638",
"E+	c #5B595A",
"F+	c #D5D4D5",
"G+	c #363234",
"H+	c #9D9C9C",
"I+	c #555455",
"J+	c #8D8D8D",
"K+	c #898989",
"L+	c #4E4C4D",
"M+	c #525151",
"                                                                                                                                ",
"                                                                                                                                ",
"                                                                                                                                ",
"                                                                                                                                ",
"                                                                                                                                ",
"                                          . + + .                                                                               ",
"                                          @ # # @                                                                               ",
"                                          $ % % $                                                                               ",
"                                          $ & & $                                                                               ",
"                                          * % % =                                                                               ",
"                                      - ; > , > '                                                                               ",
"                                      ) ! ~ { ] ^                                                                               ",
"                                      $ % % *                                                                                   ",
"                                      * % / (                                                                                   ",
"                                  _ $ : < [ }                                 | 1 1 |                                           ",
"                                  2 3 4 5 6 ]                                 7 8 9 0                                           ",
"                                  = / % *                             a b c d e f 8 0 g h h g                                   ",
"                                  * % % =                             i j k l m n o | p q r s                                   ",
"                              + t u v w x                     y z A B C w D E F G   H I J K L                                   ",
"                              M N O P Q s                     R S T U V W X Y Z `  ...+.@.! #.                                  ",
"                              = / % *         $.%.&. .*.*.=.z -.;.v >.D ,.>.'.).!.~.;.).{.! )                                   ",
"                              $ & & *         ].S ^./.(._.:.<.[.< }.{.|.{.D ).4 1.2.3.4.5.5 -                                   ",
"                              $ & & $ 6.y 7.7.-.j 1.O O l 8.& >.4.X |.9.9.E 3 < 0.9.9.& a.                                      ",
"                              $ & / q b.c.d.e.j 3 ~ @.f.f.g.{.Y Y |.h.Y / i.~ 3.Y 9.9.& $                                       ",
"                              $ & @.j.9 w 4.}.}.}.>.|.9.9.9.9.9.9.9.9.E 3 3 E 9.9.9.9.& $                                       ",
"                              I k.X 3 < >.Y '.'.'.Y h.9.9.9.9.9.9.9.9.'.& & '.9.9.9.9.& $                                       ",
"                              l.< @.% 4.Y 9.9.9.9.9.9.9.9.9.9.9.9.9.9.9.h.h.9.9.9.9.9.& a.                                      ",
"                          p m.n.F >.E '.h.9.9.9.9.9.9.9.9.9.9.9.9.9.9.9.9.9.9.9.9.9.9.X m o.A                                   ",
"                          p.q.).% >.Y 9.9.9.9.9.9.9.9.9.9.9.9.9.9.9.9.9.9.9.9.9.9.9.9.r.,.5.s.                                  ",
"                          t.8.D X E r.9.9.9.9.9.9.9.9.9.9.9.9.9.9.9.9.9.9.9.9.9.9.9.9.h.u.v.w.                                  ",
"                          x.y.E Y r.9.9.9.9.9.9.9.9.9.9.9.9.9.9.9.9.9.9.9.9.9.9.9.9.9.h.0.O z.                                  ",
"                      A.B.C.D.E h.9.9.9.9.9.9.9.9.9.9.9.9.9.9.9.9.9.9.9.9.9.9.9.9.9.9.h.{.w E.s.F.                              ",
"                      -.G.4 ~ X |.9.9.9.9.9.9.9.9.9.9.9.9.9.9.9.9.9.9.9.9.9.9.9.9.9.9.9.r.g.v H.I.                              ",
"                      J.K.D @.D |.9.9.9.9.9.9.9.9.9.9.9.9.9.9.9.9.9.9.9.9.9.9.9.9.9.9.9.9.h.{.< L.                              ",
"                      L.k g.{.Y h.9.9.9.9.9.9.9.9.9.9.9.9.9.9.9.9.9.9.9.9.9.9.9.9.9.9.9.9.h.0.y.M.                              ",
"                      } y.0.h.9.9.9.9.9.9.9.9.9.9.9.9.9.9.9.9.9.9.9.9.9.9.9.9.9.9.9.9.9.9.h.0.y.M.                              ",
"                      M.k u.h.9.9.9.9.9.9.9.9.9.9.9.9.9.9.9.9.9.9.9.9.9.9.9.9.9.9.9.9.9.9.h.u.k M.                              ",
"                      B.N.D r.9.9.9.9.9.9.9.9.9.9.9.9.9.9.9.9.9.9.9.9.9.9.9.9.9.9.9.9.9.9.h.D V B.                              ",
"                      O.q P./ h.9.9.9.9.9.9.9.9.9.9.9.9.9.9.9.9.9.9.9.9.9.9.9.9.9.9.9.9.9.D Q.R.O.                              ",
"                          S.1.E h.9.9.9.9.9.9.9.9.9.9.9.9.9.9.9.9.9.9.9.9.9.9.9.9.9.9.9.9.& *                                   ",
"                          T.U.D.D h.9.9.9.9.9.9.9.9.9.9.9.9.9.9.9.9.9.9.9.9.9.9.9.9.9.9.h.! V.                                  ",
"                          W.X.Y.! 0.h.9.9.9.9.9.9.9.9.9.9.9.9.9.9.9.9.9.9.9.9.9.9.9.9.h.{.k w.                                  ",
"                          A.( 9 Z.y.`.w 4 i.{.9.9.9.9.9.9.9.9.9.9.9.9.9.9.9.9.9.9.{.i.4 4  +b                                   ",
"                          .+++@+@+@+@+@+@+j X 9.9.9.9.9.9.9.9.9.9.9.9.9.9.9.9.9.9.X #+$+%+&+*+                                  ",
"                          =+l._.-+;+C.C.C.e.8.i.W W W W W W W W W W W W W W W W i.8.T ++>+,+'+                                  ",
"                          7.)+!+~+C.C.C.C.; {+U.U.U.U.U.U.U.U.U.U.U.U.U.U.U.U.U.U.{+]+(.s ^+6.                                  ",
"                          /+(+s._+C.C.C.C.C.C.]+P P ]+]+P P ]+]+P P ]+]+P P ]+C.C.C.:+u <+(+/+                                  ",
"                          [+}+q |+C.C.C.C.C.C.e.< < e.e.< < e.e.< < e.e.< < e.C.C.C.|+1+u 2+[+                                  ",
"                      g 3+I._+C.C.C.C.4+U.5+9 j K.K.6+6+K.K.6+6+K.K.6+6+K.K.j U.4+4+e.5+7+~+I.3+g                               ",
"                      [+#.8+9+C.C.C.C.U.1.w w 0+a+a+3 3 a+a+3 3 a+a+3 3 a+a+< y.U.U.y.y.%+u ++b+[+                              ",
"                      c+8+C.C.; {+U.d+Y.! 3.3.! e+e+! ! e+e+! ! e+j.4 4 j.j.4 w # # w w a+d+f+C (+                              ",
"                      .+n C.C.9 8.i.W ~ }.4.3.& `.`.& & `.`.& & 4 1.g+g+k k g+g+k k [.Q.F 4 e+h+i+                              ",
"                      s q j+@+k+4.|.|.u.3.).% % % % % % % % % % % w 5+5+F F 5+5+F F 5+l+3.X m+G n+                              ",
"                      o+6+D.4 K.O V N.p+Q.Z.Z.Z.Z.Z.Z.Z.Z.Z.Z.Z.q+Y.7+7+m m 7+7+m m 7+{+q+r+T s+h                               ",
"                      S.O E h.>.n.:+:+:+:+:+:+:+:+:+:+:+:+:+:+:+:+:+:+:+:+:+C.C.:+:+:+:+:+C.C.(..+                              ",
"                      t+&+u+D u.v+3 < < < < < < < < < < < < < < < < < < D.V d+d+V D.< 3 y.j w+x+y+                              ",
"                          = % 9.9.9.9.9.9.9.9.9.9.9.9.9.9.9.9.9.9.9.9.9.9.@.z+z+@.9.9.h.0.y.c                                   ",
"                          @ A+0+@.9.9.9.9.9.9.9.9.9.9.9.9.9.9.9.9.9.9.9.9.0.B+B+0.9.9.@.[ @+t                                   ",
"                          . &.C+8.'.h.9.9.9.9.9.9.9.9.9.9.9.9.9.9.9.9.9.9.9.h.h.9.h.'.8.I D+^+                                  ",
"                              E+j+K `.v v+v+v+v+v w F+O y.y.y.y.O F+w v v+v+v+v+v `.K j+E+                                      ",
"                              G+3+M :+U.f+f+f+f+U.H+M.s *+*+*+*+s M.H+U.f+f+f+f+U.:+M 3+G+                                      ",
"                              =.I+B.J+;+C.C.C.C.;+K+L+            L+K+;+C.C.C.C.;+J+B.I+=.                                      ",
"                              L+s+1+|+C.C.C.C.C.C.J+M+            M+J+C.C.C.C.C.C.|+1+s+L+                                      ",
"                              p 8+C.C.C.C.C.C.C.C.J+M+            M+J+C.C.C.C.C.C.C.C.8+p                                       "};
