/* XPM */
static char * tonyderecha_xpm[] = {
"64 64 322 2",
"  	c #302C2E",
". 	c #434042",
"+ 	c #646364",
"@ 	c #696768",
"# 	c #4A4748",
"$ 	c #6F6E6E",
"% 	c #C6C5C5",
"& 	c #CFCFCF",
"* 	c #838283",
"= 	c #413E3F",
"- 	c #535152",
"; 	c #585657",
"> 	c #555354",
", 	c #959494",
"' 	c #EBEBEB",
") 	c #F2F2F2",
"! 	c #9B9A9A",
"~ 	c #888788",
"{ 	c #C8C8C8",
"] 	c #D3D3D3",
"^ 	c #DDDDDD",
"/ 	c #F6F6F6",
"( 	c #F1F1F1",
"_ 	c #999899",
": 	c #332F31",
"< 	c #3C393A",
"[ 	c #3E3B3C",
"} 	c #AEAEAE",
"| 	c #F8F8F8",
"1 	c #FFFFFF",
"2 	c #FDFDFD",
"3 	c #EEEDEE",
"4 	c #969595",
"5 	c #3C3A3B",
"6 	c #767676",
"7 	c #AEADAD",
"8 	c #C2C2C2",
"9 	c #DEDEDE",
"0 	c #FCFCFC",
"a 	c #F3F3F3",
"b 	c #CDCCCC",
"c 	c #A5A4A5",
"d 	c #312D2F",
"e 	c #757475",
"f 	c #C1C1C1",
"g 	c #F0F0F0",
"h 	c #E7E7E7",
"i 	c #858485",
"j 	c #4C4A4B",
"k 	c #686868",
"l 	c #6F6E6F",
"m 	c #6E6D6E",
"n 	c #6D6D6D",
"o 	c #737273",
"p 	c #B5B5B5",
"q 	c #EFEFEF",
"r 	c #454344",
"s 	c #9A999A",
"t 	c #BAB9BA",
"u 	c #878687",
"v 	c #767576",
"w 	c #B0B0B0",
"x 	c #BDBDBD",
"y 	c #BBBBBB",
"z 	c #BABABA",
"A 	c #E1E1E1",
"B 	c #CECECE",
"C 	c #B6B5B6",
"D 	c #4E4D4D",
"E 	c #636262",
"F 	c #5B5A5B",
"G 	c #A4A4A4",
"H 	c #DFDFDF",
"I 	c #ECECEC",
"J 	c #EDEDED",
"K 	c #4F4D4E",
"L 	c #B5B4B4",
"M 	c #929192",
"N 	c #828282",
"O 	c #B3B3B3",
"P 	c #D1D1D1",
"Q 	c #FEFEFE",
"R 	c #828182",
"S 	c #D6D6D6",
"T 	c #F4F4F4",
"U 	c #3E3B3D",
"V 	c #322F31",
"W 	c #5C5B5C",
"X 	c #B8B8B8",
"Y 	c #E6E6E6",
"Z 	c #E8E8E8",
"` 	c #BCBBBC",
" .	c #A6A6A6",
"..	c #CACACA",
"+.	c #8E8D8D",
"@.	c #5F5E5F",
"#.	c #ACACAC",
"$.	c #E5E5E5",
"%.	c #F7F7F7",
"&.	c #A09F9F",
"*.	c #5F5D5E",
"=.	c #474546",
"-.	c #322F30",
";.	c #5B5A5A",
">.	c #AAAAAA",
",.	c #E3E3E3",
"'.	c #F5F5F5",
").	c #BCBCBC",
"!.	c #848384",
"~.	c #626061",
"{.	c #312E2F",
"].	c #5F5F5F",
"^.	c #E2E2E2",
"/.	c #979696",
"(.	c #343032",
"_.	c #4A4849",
":.	c #6E6D6D",
"<.	c #FAFAFA",
"[.	c #C1C0C1",
"}.	c #757474",
"|.	c #3D3A3C",
"1.	c #7D7C7C",
"2.	c #B9B9B9",
"3.	c #EEEEEE",
"4.	c #424041",
"5.	c #919191",
"6.	c #D5D5D5",
"7.	c #F9F9F9",
"8.	c #413F40",
"9.	c #8F8F8F",
"0.	c #B7B6B6",
"a.	c #FBFBFB",
"b.	c #B2B1B1",
"c.	c #C7C7C7",
"d.	c #D0D0D0",
"e.	c #8B8B8B",
"f.	c #878787",
"g.	c #2E2E2E",
"h.	c #616161",
"i.	c #D8D8D8",
"j.	c #E4E4E4",
"k.	c #ABABAB",
"l.	c #5F5E5E",
"m.	c #333333",
"n.	c #4B4B4B",
"o.	c #B2B2B2",
"p.	c #D9D9D9",
"q.	c #949494",
"r.	c #423F40",
"s.	c #908F8F",
"t.	c #D2D2D2",
"u.	c #A8A8A8",
"v.	c #8C8C8C",
"w.	c #252525",
"x.	c #7F7F7F",
"y.	c #C6C6C6",
"z.	c #3A3739",
"A.	c #706F6F",
"B.	c #A7A7A7",
"C.	c #D7D7D7",
"D.	c #DBDBDB",
"E.	c #CCCCCC",
"F.	c #CDCDCD",
"G.	c #494949",
"H.	c #C0C0C0",
"I.	c #8F8E8E",
"J.	c #353133",
"K.	c #464344",
"L.	c #929191",
"M.	c #9F9F9F",
"N.	c #9C9C9C",
"O.	c #858585",
"P.	c #2B2B2B",
"Q.	c #F8F7F8",
"R.	c #AFAFAF",
"S.	c #393637",
"T.	c #4B494A",
"U.	c #9A9A9A",
"V.	c #999999",
"W.	c #C3C3C3",
"X.	c #A9A9A9",
"Y.	c #ACABAB",
"Z.	c #C7C6C7",
"`.	c #898889",
" +	c #EAEAEA",
".+	c #A1A0A0",
"++	c #514F50",
"@+	c #353233",
"#+	c #848484",
"$+	c #919090",
"%+	c #312E30",
"&+	c #595858",
"*+	c #C9C9C9",
"=+	c #9B9B9B",
"-+	c #8E8E8E",
";+	c #7D7D7D",
">+	c #4E4C4D",
",+	c #4C4B4B",
"'+	c #757575",
")+	c #C4C4C4",
"!+	c #909090",
"~+	c #747474",
"{+	c #5E5E5E",
"]+	c #454243",
"^+	c #3B383A",
"/+	c #322E30",
"(+	c #535253",
"_+	c #707070",
":+	c #8D8D8D",
"<+	c #A0A0A0",
"[+	c #CBCBCB",
"}+	c #BFBFBF",
"|+	c #808080",
"1+	c #969696",
"2+	c #696868",
"3+	c #525152",
"4+	c #464445",
"5+	c #7E7E7E",
"6+	c #939393",
"7+	c #A1A1A1",
"8+	c #B6B6B6",
"9+	c #B7B7B7",
"0+	c #DCDCDC",
"a+	c #888888",
"b+	c #575656",
"c+	c #9D9D9D",
"d+	c #929292",
"e+	c #A5A5A5",
"f+	c #ADADAD",
"g+	c #959595",
"h+	c #BEBEBE",
"i+	c #A3A3A3",
"j+	c #6F6F6F",
"k+	c #4A494A",
"l+	c #4E4D4E",
"m+	c #DADADA",
"n+	c #868686",
"o+	c #7C7C7C",
"p+	c #777777",
"q+	c #E9E9E9",
"r+	c #414041",
"s+	c #4D4D4D",
"t+	c #787878",
"u+	c #6C6C6C",
"v+	c #403F3F",
"w+	c #4F4E4F",
"x+	c #797979",
"y+	c #353234",
"z+	c #5A5A5A",
"A+	c #C5C5C5",
"B+	c #5E5D5E",
"C+	c #3E3C3D",
"D+	c #383537",
"E+	c #636263",
"F+	c #E0E0E0",
"G+	c #484647",
"H+	c #5A5959",
"I+	c #7A7A7A",
"J+	c #474647",
"K+	c #4F4E4E",
"L+	c #7B7B7B",
"M+	c #6E6E6E",
"N+	c #B7B6B7",
"O+	c #B1B1B1",
"P+	c #8C8B8B",
"Q+	c #727171",
"R+	c #838383",
"S+	c #737373",
"T+	c #4C494A",
"U+	c #424142",
"V+	c #504F50",
"W+	c #656465",
"X+	c #565656",
"Y+	c #ABAAAB",
"Z+	c #A3A2A2",
"`+	c #8D8C8C",
" @	c #5D5D5D",
".@	c #979797",
"+@	c #818181",
"@@	c #8A8A8A",
"#@	c #626161",
"$@	c #343132",
"%@	c #636162",
"&@	c #747373",
"*@	c #515051",
"=@	c #555555",
"-@	c #4D4C4C",
";@	c #656565",
">@	c #535252",
",@	c #575757",
"'@	c #585758",
")@	c #585858",
"!@	c #545454",
"~@	c #818081",
"{@	c #3D3B3C",
"]@	c #363334",
"^@	c #797879",
"/@	c #343133",
"(@	c #575556",
"_@	c #7B7A7A",
":@	c #787778",
"<@	c #A2A1A2",
"[@	c #BDBCBC",
"}@	c #CCCBCB",
"|@	c #7F7E7E",
"1@	c #D8D7D8",
"2@	c #7A7979",
"3@	c #4D4B4C",
"4@	c #A2A2A2",
"5@	c #6D6B6C",
"6@	c #807F80",
"7@	c #D4D4D4",
"8@	c #333031",
"9@	c #B2B1B2",
"0@	c #C0BFBF",
"a@	c #717071",
"b@	c #5D5B5C",
"c@	c #C9C8C8",
"d@	c #8B8A8B",
"e@	c #A8A7A8",
"f@	c #D2D1D2",
"g@	c #9C9B9B",
"                                                                                                                                ",
"                                                                      . + @ #                                                   ",
"                                                                      $ % & *                                                   ",
"                                                              = - ; > , ' ) !                                                   ",
"                                                              ~ { ] & ^ / ( _                                                   ",
"                                                        : < [ } | 1 1 1 2 3 4                                                   ",
"                                                      5 6 7 8 9 0 1 1 a b c $                                                   ",
"                                                    d e f g 1 1 1 1 1 h i                                                       ",
"                                j k l m m m m m m n o p q 1 1 1 1 1 1 h i     r s t u                                           ",
"                                v w x y y y y y y z x A 1 1 1 1 1 1 1 h i     > B 0 C                                           ",
"                        D E + F G H q I I I I I I I J / 1 1 1 1 1 1 1 h i K , L 8 { M                                           ",
"                        N w O w P | 1 Q Q Q Q Q Q Q Q 1 1 1 1 1 1 1 1 h R @ S T } # U                                           ",
"                    V W X Y Z h g 2 1 1 1 1 1 1 1 1 1 1 1 1 1 1 1 1 1 g `  ...& +.                                              ",
"                  d @.#.$.2 Q 2 Q 1 1 1 1 1 1 1 1 1 1 1 1 1 1 1 1 1 1 2 %.Y &.*.=.                                              ",
"                -.;.>.,.0 1 1 1 1 1 1 1 1 1 1 1 1 1 1 1 1 1 1 1 1 1 1 1 1 '.).!.~.                                              ",
"              {.].>.^.0 1 1 1 1 1 1 1 1 1 1 1 1 1 1 1 1 1 1 1 1 1 1 1 1 1 2 a ^./.                                              ",
"          (._.:.} ^.0 1 1 1 1 1 1 1 1 1 1 1 1 1 1 1 1 1 1 1 1 1 1 1 1 1 1 1 1 <.[.}.F                                           ",
"          |.1.2.Y 0 1 1 1 1 1 1 1 1 1 1 1 1 1 1 1 1 1 1 1 1 1 1 1 1 1 1 1 1 1 2 3.^ &.                                          ",
"          4.5.6.7.1 1 1 1 1 1 1 1 1 1 1 1 1 1 1 1 1 1 1 1 1 1 1 1 1 1 1 1 1 1 1 1 2 2.                                          ",
"          8.9.P %.1 1 1 1 1 1 1 1 1 1 1 1 1 1 1 1 1 1 1 1 1 1 1 1 1 1 1 1 1 1 1 1 2 0.                                          ",
"          8.9.P %.1 1 1 1 1 1 1 1 1 1 1 1 1 1 1 1 1 1 1 1 1 1 1 1 1 2 a.<.a.Q 1 Q <.b.                                          ",
"          8.9.P %.1 1 1 1 1 1 1 1 1 1 1 1 1 1 1 1 1 1 1 1 1 1 1 1 <.$.c.} ).' Q g d.e.                                          ",
"          8.9.P %.1 1 1 1 1 1 1 1 1 1 1 1 Q Q 1 1 1 1 1 1 1 1 1 1 / B f.g.h.i.2 j.k.l.                                          ",
"          8.9.P %.1 1 1 1 1 1 1 1 1 1 1 %.i.B q 1 1 1 1 1 1 1 1 1 %.& e.m.n.o.$.I p.q.                                          ",
"          r.s.t.%.1 1 1 1 1 1 1 1 1 1 1 q u.v.9 1 1 1 1 1 1 1 1 1 %.& e.m.w.x.y.a 2 0.                                          ",
"          z.A.B.C.%.1 1 1 1 1 1 1 1 '.D.E.y.F.J 1 1 1 1 1 1 1 1 1 %.& e.m.G.w 9 C.H.I.                                          ",
"          d J.K.L.] %.1 1 1 1 1 1 1 Z M.N.$.2 Q 1 1 1 1 1 1 1 1 1 / B O.P.h.i.Q.R.U S.                                          ",
"                T.L.S a.1 1 1 1 1 1 h U.V.h 1 1 1 1 1 1 1 1 1 1 1 <.,.W.X.Y.Z.y.`.                                              ",
"                  r 7  +a.1 1 1 1 1 Z U.V.h 1 1 1 1 1 1 1 1 1 1 1 Q 0 7.|  +.+++.                                               ",
"                  @+#+H.Y a.0 0 | a D.B. .D.a <.1 1 1 1 1 Q 0 0 0 a./ J h ] $+4.|.                                              ",
"                  %+&+e.*+ +J J ^.t.c.y y y.t.g 1 1 1 1 1 / I ' J Z S X =+-+;+k >+                                              ",
"                  d ,+'+X.)+y.y.W.H.H.8 8 f { I 1 Q 2 2 2 I ] *+c.f >.!+!+5.N ~+{+]+^+                                          ",
"                  /+(+_+O.v.:+v.<+).f f f f [+3.1 %.q q q A }+M.9.e.|+9.}+y.1+$ n 2+3+                                          ",
"                J.4+5+U.6+6+6+6+7+8+2.2.2.9+H.H ( 0+E.F.F.*+9+U.f.O.#+<+t.p.w a+O.'+b+                                          ",
"              d 4+~+x ,.^.^.^.j...c+!+d+d+5.1+e+f+<+q.g+g+c+R.y h+h+x c.p.0+d.f i+j+k+                                          ",
"              %+l+a+m+1 1 1 1 1 ,.U.n+n+n+f.#+o+p+p+p+x.n+1+X i.h q+q+Z $.j.$.0+O n r+                                          ",
"              %+s+n+C.1 1 1 1 1 a H i.p.p.D.d.<+p+p+t+o.p.0+$.( 7.a.a.7./ a I i.k.u+v+                                          ",
"              /+w+O.] 2 Q 1 1 1 1 1 Q 2 2 Q %.z o+x+x+..2 2 2 Q 1 1 1 1 1 Q q t.B.'+,+: d                                       ",
"              y+z+x.k.A+,.1 1 1 1 1 ) d.& ) a.,...G t+G W.)+8 ^ a.1 1 1 1 | P #.R.#.v.B+C+                                      ",
"              D+E+x+p+p+{ Q 1 1 1 1 h U.V.h 1 1 a.H.p+p+p+p+p+X | 1 1 1 1 a R.N 8 F+z 6 G+                                      ",
"              @+H+x.} *+..E.E.E.E.E.[+c.6.a 1 1 2 A c.{ *+>.I+c+A+F...p.'.7.m+[+h '.c.'+J+                                      ",
"              /+K+f.S Q F.L+x+x+x+x+B.3.Q 1 1 1 1 1 Q Q Q & ;+t+x+x+x+7+' 1 Q Q 1 2 [+_+8.                                      ",
"              d 4.M+N+D.O t+U.y H.).] / 1 1 1 1 1 0 <.<.<.0+o.#.f+f+X.8 ' a.<.%.Z p.d.}+O O+P+U                                 ",
"                /+^+Q+:+R+S+x %.a.a.0 Q 1 1 1 1 Q a h h h ,.^ ^ ^ ^ ^ H j.h Z F+p 5.] a.a.a.c.T+                                ",
"                  d U+V+W+S+R.9 j.,.^.H 9 9 9 9 0+..z z z }+A+A+A+c...*+W.H.8 2.`.X+Y+C.C.C.)+G &.Z+`+-                         ",
"                    {.:  @p+a+.@U.U..@!+v.v.v.:+v.n++@N N #+n+n+n+@@!+5.-+v.-+n+#@$@++%@%@%@L q T '.C.&@                        ",
"                        *@k h.=@(+-@n 9.U.q.5.5.5.5.5.5.5.5.5.5.d+N ;@>@,@'@)@!@4.          .@D.^.^.t.c ~@>                     ",
"                        z.. {@]@$@%+^@W.] E.*+*+*+*+*+*+*+*+*+*+F.f+B+V /@/@/@$@/+          (@}._@:@<@9 p.R                     ",
"                                    &@[@S $.g 3.3.3.3.3.3.3.3.3.) }@2+                              |@1@F+G :@2@v ;             ",
"                                    3@m 4@Y 2 0 0 0 0 0 0 0 0 0 Q p.5@                              - 6@i+P ^.^.0+s             ",
"                                        $ 7@/ 0 1 1 1 1 1 1 1 1 1 ^.P+; U                               $ 6.'.T g 0.%@%@%@++8@  ",
"                                        ++`.9@Y 1 1 1 1 1 1 1 1 1 T F+0@a@                              ++P+Z+&.i+W.C.C.1@B.<   ",
"                                            b@B a.<.<.<.<.<.<.<.<.<.a.,.*                                       =.)+<.<.<.c@; . ",
"                                            # M O+R.R.R.R.R.R.R.R.R.9@c+*.                                      < d@w R.R.x b e@",
"                                                                                                                          9@a.f@",
"                                                                                                                          i 2.g@",
"                                                                                                                                ",
"                                                                                                                                ",
"                                                                                                                                ",
"                                                                                                                                ",
"                                                                                                                                ",
"                                                                                                                                ",
"                                                                                                                                ",
"                                                                                                                                "};
