/* XPM */
static char * tonyfrente_xpm[] = {
"64 64 316 2",
"  	c #302C2E",
". 	c #484647",
"+ 	c #A6A6A6",
"@ 	c #C9C9C9",
"# 	c #919191",
"$ 	c #363335",
"% 	c #444243",
"& 	c #464445",
"* 	c #393637",
"= 	c #999999",
"- 	c #BDBDBD",
"; 	c #979697",
"> 	c #626161",
", 	c #656465",
"' 	c #686767",
") 	c #565455",
"! 	c #353234",
"~ 	c #545253",
"{ 	c #8C8C8C",
"] 	c #929292",
"^ 	c #5F5E5E",
"/ 	c #373435",
"( 	c #646363",
"_ 	c #7E7D7D",
": 	c #A8A8A8",
"< 	c #C5C5C5",
"[ 	c #C8C8C8",
"} 	c #CDCDCD",
"| 	c #A2A1A1",
"1 	c #434041",
"2 	c #6F6E6F",
"3 	c #C3C3C3",
"4 	c #CECECE",
"5 	c #8B8A8B",
"6 	c #383536",
"7 	c #312D2F",
"8 	c #3B3739",
"9 	c #BAB9BA",
"0 	c #F4F4F4",
"a 	c #F3F3F3",
"b 	c #F1F1F1",
"c 	c #C6C6C6",
"d 	c #636262",
"e 	c #4C4A4B",
"f 	c #3C393B",
"g 	c #322E30",
"h 	c #7F7E7E",
"i 	c #DFDFDF",
"j 	c #F2F2F2",
"k 	c #C4C3C3",
"l 	c #7E7E7E",
"m 	c #474546",
"n 	c #3C383A",
"o 	c #C2C2C2",
"p 	c #FCFCFC",
"q 	c #F5F5F5",
"r 	c #EEEEEE",
"s 	c #DADADA",
"t 	c #C1C0C1",
"u 	c #B6B6B6",
"v 	c #A4A4A4",
"w 	c #7D7D7D",
"x 	c #454344",
"y 	c #E2E2E2",
"z 	c #FBFBFB",
"A 	c #ECECEC",
"B 	c #7C7C7C",
"C 	c #4A4748",
"D 	c #FEFEFE",
"E 	c #F6F6F6",
"F 	c #EFEFEF",
"G 	c #EDEDED",
"H 	c #DCDCDC",
"I 	c #AFAEAF",
"J 	c #3A3738",
"K 	c #373436",
"L 	c #353133",
"M 	c #353233",
"N 	c #343032",
"O 	c #605E5F",
"P 	c #9F9E9E",
"Q 	c #E9E9E9",
"R 	c #D4D3D3",
"S 	c #C7C6C6",
"T 	c #D7D7D7",
"U 	c #E4E4E4",
"V 	c #F9F9F9",
"W 	c #D3D3D3",
"X 	c #BBBBBB",
"Y 	c #A9A8A8",
"Z 	c #939393",
"` 	c #838383",
" .	c #858485",
"..	c #868585",
"+.	c #8B8B8B",
"@.	c #8E8D8E",
"#.	c #6C6B6B",
"$.	c #6B6A6A",
"%.	c #DBDBDB",
"&.	c #FFFFFF",
"*.	c #E5E5E5",
"=.	c #CACACA",
"-.	c #FAFAFA",
";.	c #F0F0F0",
">.	c #E8E8E8",
",.	c #D6D6D6",
"'.	c #CCCCCC",
").	c #989898",
"!.	c #E6E6E6",
"~.	c #E7E7E7",
"{.	c #DEDEDE",
"].	c #A7A6A7",
"^.	c #989798",
"/.	c #696969",
"(.	c #322F31",
"_.	c #2E2A2C",
":.	c #CBCBCB",
"<.	c #E1E1E1",
"[.	c #FDFDFD",
"}.	c #EBEBEB",
"|.	c #D9D9D9",
"1.	c #A9A9A9",
"2.	c #676666",
"3.	c #363334",
"4.	c #B7B7B7",
"5.	c #A9A8A9",
"6.	c #5A595A",
"7.	c #696768",
"8.	c #F7F7F7",
"9.	c #EAEAEA",
"0.	c #797878",
"a.	c #4F4C4E",
"b.	c #AEADAD",
"c.	c #B2B2B2",
"d.	c #888787",
"e.	c #5E5D5E",
"f.	c #C0C0C0",
"g.	c #CFCFCF",
"h.	c #898888",
"i.	c #737273",
"j.	c #D1D1D1",
"k.	c #908F90",
"l.	c #6F6E6E",
"m.	c #878686",
"n.	c #666465",
"o.	c #F8F8F8",
"p.	c #DDDDDD",
"q.	c #A4A3A4",
"r.	c #6B696A",
"s.	c #525051",
"t.	c #757474",
"u.	c #B9B9B9",
"v.	c #8C8B8B",
"w.	c #868586",
"x.	c #A1A0A1",
"y.	c #848384",
"z.	c #9A9A9A",
"A.	c #E2E1E1",
"B.	c #979797",
"C.	c #838282",
"D.	c #969596",
"E.	c #636263",
"F.	c #D5D5D5",
"G.	c #B8B8B8",
"H.	c #E0E0E0",
"I.	c #A3A2A3",
"J.	c #727171",
"K.	c #828182",
"L.	c #414141",
"M.	c #030303",
"N.	c #868686",
"O.	c #A0A0A0",
"P.	c #121212",
"Q.	c #BEBEBE",
"R.	c #8A8A8A",
"S.	c #7D7C7C",
"T.	c #2E2E2E",
"U.	c #000000",
"V.	c #646464",
"W.	c #B0B0B0",
"X.	c #C7C7C7",
"Y.	c #787878",
"Z.	c #090909",
"`.	c #8F8F8F",
" +	c #6D6C6C",
".+	c #747374",
"++	c #353535",
"@+	c #1E1E1E",
"#+	c #040404",
"$+	c #101010",
"%+	c #242424",
"&+	c #2A2A2A",
"*+	c #262626",
"=+	c #161616",
"-+	c #1C1C1C",
";+	c #282828",
">+	c #B3B3B3",
",+	c #E3E3E3",
"'+	c #878787",
")+	c #494748",
"!+	c #B9B8B9",
"~+	c #818181",
"{+	c #252525",
"]+	c #535353",
"^+	c #A7A7A7",
"/+	c #9B9B9B",
"(+	c #060606",
"_+	c #A2A2A2",
":+	c #B5B5B5",
"<+	c #828282",
"[+	c #454445",
"}+	c #4A4849",
"|+	c #393939",
"1+	c #7B7B7B",
"2+	c #0D0D0D",
"3+	c #AFAFAF",
"4+	c #888888",
"5+	c #4A4949",
"6+	c #312E2F",
"7+	c #535252",
"8+	c #9E9E9E",
"9+	c #959595",
"0+	c #BCBCBC",
"a+	c #949494",
"b+	c #747373",
"c+	c #434142",
"d+	c #2F2B2D",
"e+	c #302D2E",
"f+	c #AAAAAA",
"g+	c #D4D4D4",
"h+	c #A3A3A3",
"i+	c #343132",
"j+	c #332F31",
"k+	c #767676",
"l+	c #A5A5A5",
"m+	c #BFBFBF",
"n+	c #9F9F9F",
"o+	c #ABABAB",
"p+	c #7B7A7B",
"q+	c #676767",
"r+	c #B4B4B4",
"s+	c #717071",
"t+	c #3C3A3B",
"u+	c #3F3C3E",
"v+	c #737272",
"w+	c #D2D2D2",
"x+	c #BABABA",
"y+	c #5A5959",
"z+	c #3C393A",
"A+	c #3D3B3C",
"B+	c #6A696A",
"C+	c #ADADAD",
"D+	c #A1A1A1",
"E+	c #B1B1B1",
"F+	c #898989",
"G+	c #5D5B5C",
"H+	c #C4C4C4",
"I+	c #969696",
"J+	c #6B6A6B",
"K+	c #424041",
"L+	c #696869",
"M+	c #9D9D9D",
"N+	c #535152",
"O+	c #D0D0D0",
"P+	c #5D5C5D",
"Q+	c #9C9C9C",
"R+	c #8D8C8D",
"S+	c #D4D3D4",
"T+	c #9E9D9E",
"U+	c #5E5C5D",
"V+	c #9B9A9A",
"W+	c #423F40",
"X+	c #717070",
"Y+	c #CECDCD",
"Z+	c #504E4F",
"`+	c #9E9D9D",
" @	c #D8D8D8",
".@	c #D7D6D6",
"+@	c #363234",
"@@	c #4D4A4B",
"#@	c #5B5A5B",
"$@	c #615F60",
"%@	c #676566",
"&@	c #9A9999",
"*@	c #727172",
"=@	c #626061",
"-@	c #636162",
";@	c #686667",
">@	c #909090",
",@	c #737373",
"'@	c #383537",
")@	c #3B3839",
"!@	c #AEAEAE",
"~@	c #888788",
"{@	c #3A3739",
"]@	c #3A3839",
"^@	c #454243",
"/@	c #A09F9F",
"(@	c #706F70",
"_@	c #4F4D4E",
":@	c #CAC9CA",
"<@	c #878687",
"[@	c #B8B7B8",
"}@	c #BEBDBD",
"|@	c #C6C5C5",
"1@	c #555354",
"2@	c #EEEDEE",
"3@	c #A2A1A2",
"4@	c #434042",
"5@	c #949394",
"6@	c #EFEEEE",
"7@	c #939293",
"8@	c #333031",
"9@	c #959494",
"0@	c #A5A4A5",
"a@	c #737172",
"                                . + @ #                                                                                         ",
"                        $ % & * % = - ; > , ' ) !                                                                               ",
"                        ~ { ] ^ / ( _ : < [ } | 1                                                                               ",
"                        2 3 4 5 6 7 8 9 0 a b c d e & f g                                                                       ",
"                        h i j k l m n o p q r s t u v w x                                                                       ",
"                        h y z A 3 B C c D E r F j G H I ( J K L M ! $ K N                                                       ",
"                        O P c Q b R S T U G E V p E Q W X Y Z `  ...+.@.#.                                                      ",
"                            $.%.&.&.D *.=.*.D &.&.-.;.G F >.,.=.'.'.'.=.).g                                                     ",
"                            $.%.&.&.&.j !.!.~.b D D z -.z V q j a b >.{.c : ].: ^./.(._.                                        ",
"                            $.%.&.&.&.&.&.~.:.<.[.&.&.&.&.&.&.&.&.D 0 }.}.Q Q }.|.1.2.3.                                        ",
"                            $.%.&.&.&.&.&.j y r D &.&.&.&.&.&.&.&.&.p V V V V -.r W 4.5.] 6.                                    ",
"                            7.s &.&.&.&.&.D [.D &.&.&.&.&.&.&.&.&.&.&.&.&.&.&.&.8.}.!.9.} 0.                                    ",
"                        a.h b.~.&.&.&.&.&.&.&.&.&.&.&.&.&.&.&.&.&.&.&.&.&.&.&.&.p V q j i c.d.e.                                ",
"                        #.f.}.V &.&.&.&.&.&.&.&.&.&.&.&.&.&.&.&.&.&.&.&.&.&.&.&.&.&.V ;.Q !.g.h.                                ",
"                        i.j.8.D &.&.&.&.&.&.&.&.&.&.&.&.&.&.&.&.&.&.&.&.&.&.&.&.&.&.p q j a i k.                                ",
"                        l.'.E [.&.&.&.&.&.&.&.&.&.&.&.&.&.&.&.&.&.&.&.&.&.&.&.&.&.&.D [.z E s m.                                ",
"                    m n.).|.o.[.&.&.&.&.&.&.&.&.&.&.&.&.&.&.&.&.&.&.&.&.&.&.&.&.&.&.&.&.D 8.p.q.r.s.                            ",
"                    t.u.{.j [.&.&.&.&.&.&.&.&.&.&.&.&.&.&.&.&.&.&.&.&.&.&.&.&.&.&.&.&.&.p a ~.s < v.                            ",
"                    w.%.-.D &.&.&.&.&.&.&.&.&.&.&.&.&.&.&.&.&.&.&.&.&.&.&.&.&.&.&.&.&.&.p a F j Q x.                            ",
"                    y.T 8.D &.&.&.&.&.&.&.&.&.&.&.&.&.&.&.&.&.&.&.&.&.&.&.&.&.&.&.&.&.&.D z o.q y z.                            ",
"                    y.T 8.D &.&.&.&.&.&.&.&.&.&.&.&.&.&.&.&.&.&.&.&.&.&.&.&.&.&.&.&.&.&.&.&.&.V A.B.                            ",
"                    y.T o.D &.&.&.&.&.&.&.&.&.&.&.&.&.&.&.&.&.&.&.&.&.&.&.&.&.&.&.&.&.&.&.&.D V A.).                            ",
"                    C.R q [.&.&.&.&.&.&.&.&.&.&.D D D D &.&.&.&.D D D D &.&.&.&.&.&.&.&.&.&.D 8.p.D.                            ",
"                    E.z.[ b &.&.&.&.&.&.&.&.&.!.f.4.u 4 0 &.&.-.F.u G.X H.&.&.&.&.&.&.&.&.&.b '.I.J.                            ",
"                        K.!.&.&.&.&.&.&.&.&.&.} L.M.M.N.9.&.&.q O.M.M.P.Q.&.&.&.&.&.&.&.D o.s R.                                ",
"                        S.i D &.&.&.&.&.&.*.[ z.T.U.U.V.W.X.c u.Y.U.U.Z.`.o <.D &.&.&.D 0 H c. +                                ",
"                        .+j.V D &.&.&.&.&.o ++@+#+U.U.$+%+&+&+*+=+U.U.U.-+;+>+p &.&.D E ,+Q.'+)+                                ",
"                        n.!+<.r 8.[.&.&.&.s 1.~+{+U.U.]+Z ^++ /+V.U.U.(+Y._+W [.&.D o.A T :+<+[+                                ",
"                        }+{ u [ p.8.&.&.&.z o.f.|+U.U.1+H.o.o.A Z U.U.2+W.8.z &.D 8.A %.c 3+4+5+                                ",
"                        6+7+B /+Q.,+j 0 8.z &.{.8+# `.G.b &.&.o.< `.] 9+F.&.D V }.|.:.0+1.a+b+c+                                ",
"                        d+e+x Y.f+=.g+T s G &.V b F F 0 p &.&.D q F ;.;.o.&.8.H.3 1.h+8+R.( 1 i+                                ",
"                        j+6 )+k+l+c j.3 4.T o.[.D D D D D D D D D D z V -.-.!.m+n+z._+:+o+p+. L                                 ",
"                        1 q+1+N._+g.*.3 8+4.H F E E E E E E E E 8.q Q i i H.[ _+z.z.r+U ,+>+s+t+                                ",
"                    j+u+v+1.X >+u j.,+X.: : G.w+p.i i i i i i i i H :.x+X X r+1.^+v c E q c N.y+m z+                            ",
"                    A+B+C+H.;.9.U :.G.=.|.- D+o+c.c.c.c.c.c.c.c.>+E+: O.O.O.x+F.T w+<.V b Q.`.F+~+G+                            ",
"                    c+h H+q &.&.z g.l+} Q '.h+D+D+D+D+D+D+D+D+D+D+D+D+D+D+D+@ A b j 8.[.;.u.I+z.I+J+                            ",
"                    K+B o 0 &.&.[.G {.g.Q.@ W W W W W W W W W W W W W W W W i A 0 z [.&.;.4.z.z.9+L+                            ",
"                    % l f.b [.[.[.[.p 4 z.< }.A A A A A A A A A A A A A A A A Q ;.p [.[.r u.M+n+=  +                            ",
"                    N+N.3+[ j.g.g.O+4 :+z.W.H+< < < < < < < < < < < < < < < < < @ 4 O+g.w+T |.F.3 ..                            ",
"                    P+@.Q+z.z.z.z.z.z.z.z.z.z.z.z.z.z.z.z.z.z.z.z.z.z.z.z.z.z.z.z.z.z.z.r+G D V H.B.                            ",
"                    e L+R+:+} w+W W j.4.z.G.j.W W W W W W W W W W W W W W W W W W W W j.{.E V S+^+.+                            ",
"                    7 g .+4 E p D D [.4 z.O+[.D D D D D D D D D D D D D D D D D D D D D &.&.j T+M (.                            ",
"                        U+_+'.}.D &.D !.'.!.D &.&.&.&.&.&.&.&.&.&.&.&.&.&.&.&.&.&.&.D p [.D j V+                                ",
"                        L W+X+Y+o.D &.[.p [.&.&.&.&.&.&.&.&.&.&.&.&.&.&.&.&.&.&.&.&.[.E q p j V+                                ",
"                            Z+`+X.w+ @y A A A A G !.s F.T T T T .@ @{.U U U U U U *.s H+O+a j V+                                ",
"                            +@@@#@$@%@&@:+:+:+:+4.D+*@=@-@-@-@-@=@;@Z : : : : : : f+9+%@>@>.a M+                                ",
"                                    6+) J.J.J.J.,@^ '@            )@# X x+x+x+x+x+X !@9+O.W g+~@                                ",
"                                      +@{@{@{@{@]@/ 7             ^@- j j j j j j j ;.G s /@(@_@                                ",
"                                                                  m :@&.&.&.&.&.o.G b p Q <@                                    ",
"                                                                  m :.&.&.&.&.&.y Q+[@a Q ~@                                    ",
"                                                                  x }@0 0 0 0 0 |@1@>@2@Q ~@                                    ",
"                                                                  * h x./@/@/@3@y.4@5@6@Q ~@                                    ",
"                                                                                    5@6@Q ~@                                    ",
"                                                                                    7@6@Q ~@                                    ",
"                                                                                8@3.9@2@~.w.                                    ",
"                                                                                _ 4.t m+Y 2.                                    ",
"                                                                                v E {.b+                                        ",
"                                                                                0@E {.a@                                        ",
"                                                                                0@E {.a@                                        ",
"                                                                                0@E {.a@                                        ",
"                                                                                0@E {.a@                                        ",
"                                                                                0@E {.a@                                        ",
"                                                                                0@E {.a@                                        ",
"                                                                                0@E {.a@                                        "};
